# xmcd CD database file
#
# Track frame offsets:
#	150
#	3652
#	31170
#	56445
#	77812
#	97605
#	120359
#	140851
#	164924
#	190479
#
# Disc length: 2863 seconds
#
# Revision: 1
# Processed by: cddbd v1.5.2PL0 Copyright (c) Steve Scherf et al.
# Submitted via: CDex 1.70beta2
#
DISCID=800b2d0a
DTITLE=Jamey Aebersold - Volume 44 - Autumn Leaves
DYEAR=1989
DGENRE=Jazz
TTITLE0=Tuning Notes
TTITLE1=All or nothing at all
TTITLE2=Autumn Leaves
TTITLE3=My shinig hour
TTITLE4=Tenderly
TTITLE5=After you've gone
TTITLE6=Stormy weather
TTITLE7=S'posin'
TTITLE8=There will never be another you
TTITLE9=Witchcraft
EXTD=YEAR: 1989
EXTT0=
EXTT1=
EXTT2=
EXTT3=
EXTT4=
EXTT5=
EXTT6=
EXTT7=
EXTT8=
EXTT9=
PLAYORDER=
